<?xml version="1.0" encoding="UTF-8"?>
<svg xmlns="http://www.w3.org/2000/svg" xmlns:xlink="http://www.w3.org/1999/xlink" width="50px" height="50px" viewBox="0 0 50 50" version="1.1">
<g id="surface1">
<path style=" stroke:none;fill-rule:evenodd;fill:rgb(0%,43.921569%,70.196078%);fill-opacity:1;" d="M 49.96875 24.984375 C 49.96875 38.78125 38.78125 49.96875 24.984375 49.96875 C 11.1875 49.96875 0 38.78125 0 24.984375 C 0 11.1875 11.1875 0 24.984375 0 C 38.78125 0 49.96875 11.1875 49.96875 24.984375 Z M 49.96875 24.984375 "/>
<path style=" stroke:none;fill-rule:evenodd;fill:rgb(99.607843%,99.607843%,99.607843%);fill-opacity:1;" d="M 12.363281 19.820312 L 12.726562 20.925781 C 12.746094 21.015625 12.828125 21.175781 12.863281 21.289062 C 12.941406 21.539062 13.042969 21.789062 13.144531 22.027344 C 13.167969 22.074219 13.167969 22.117188 13.191406 22.164062 C 13.214844 22.199219 13.226562 22.222656 13.238281 22.277344 L 13.488281 22.878906 C 13.613281 23.152344 13.703125 23.425781 13.839844 23.6875 L 14.148438 24.371094 C 14.191406 24.460938 14.214844 24.519531 14.25 24.609375 L 14.464844 25.050781 C 14.5 25.121094 14.535156 25.1875 14.578125 25.257812 C 14.613281 25.335938 14.660156 25.40625 14.691406 25.484375 C 14.761719 25.632812 14.839844 25.757812 14.910156 25.917969 C 15.078125 26.246094 15.296875 26.597656 15.488281 26.941406 C 15.601562 27.144531 15.726562 27.328125 15.839844 27.542969 C 15.863281 27.566406 15.875 27.601562 15.898438 27.632812 L 16.078125 27.917969 C 16.296875 28.238281 16.488281 28.542969 16.71875 28.851562 C 16.957031 29.179688 17.308594 29.667969 17.570312 29.964844 L 17.707031 30.136719 C 17.820312 30.261719 17.933594 30.410156 18.058594 30.523438 C 18.082031 30.554688 18.105469 30.578125 18.128906 30.601562 C 18.148438 30.636719 18.171875 30.660156 18.207031 30.683594 L 18.785156 31.261719 C 18.980469 31.445312 19.195312 31.625 19.402344 31.785156 L 19.878906 32.160156 C 19.933594 32.21875 19.980469 32.238281 20.039062 32.285156 C 20.34375 32.535156 20.675781 32.773438 20.992188 33.023438 L 21.949219 33.730469 C 22.128906 33.855469 22.324219 34.003906 22.515625 34.117188 C 22.550781 34.140625 22.5625 34.160156 22.597656 34.171875 C 22.652344 34.21875 22.710938 34.253906 22.765625 34.285156 L 23.253906 34.617188 C 23.449219 34.742188 23.972656 35.070312 24.175781 35.183594 C 24.210938 35.207031 24.234375 35.21875 24.269531 35.230469 L 24.859375 35.570312 C 24.984375 35.652344 25.15625 35.730469 25.246094 35.789062 L 26.269531 36.289062 C 26.316406 36.3125 26.324219 36.3125 26.359375 36.320312 L 26.632812 36.445312 C 27.019531 36.628906 27.804688 36.890625 28.214844 37.015625 C 28.28125 37.039062 28.339844 37.0625 28.40625 37.074219 C 28.476562 37.09375 28.53125 37.105469 28.601562 37.128906 C 28.917969 37.21875 29.261719 37.289062 29.589844 37.335938 C 29.941406 37.390625 30.296875 37.425781 30.648438 37.425781 C 30.953125 37.425781 31.25 37.425781 31.558594 37.390625 C 31.636719 37.378906 31.714844 37.367188 31.796875 37.367188 C 31.875 37.355469 31.945312 37.34375 32.035156 37.324219 L 32.035156 37.3125 L 32.046875 37.3125 L 33.445312 36.855469 L 33.457031 36.855469 C 33.558594 36.824219 33.648438 36.753906 33.742188 36.699219 C 33.84375 36.628906 33.921875 36.582031 34.011719 36.515625 C 34.308594 36.332031 34.832031 35.96875 35.070312 35.777344 L 36.039062 34.980469 L 36.480469 34.570312 C 36.582031 34.457031 36.699219 34.355469 36.800781 34.242188 C 35.628906 33.796875 33.386719 32.945312 29.066406 31.308594 C 29.03125 31.339844 28.988281 31.375 28.929688 31.410156 C 28.875 31.445312 28.828125 31.476562 28.761719 31.511719 C 28.019531 31.933594 27.15625 31.898438 26.484375 31.363281 C 26.453125 31.339844 26.429688 31.320312 26.40625 31.308594 C 26.28125 31.214844 26.121094 31.089844 26.007812 30.988281 C 25.960938 30.941406 25.917969 30.910156 25.859375 30.863281 C 25.8125 30.816406 25.769531 30.773438 25.710938 30.726562 L 24.960938 30.054688 C 24.90625 30 24.859375 29.953125 24.800781 29.910156 L 23.765625 28.929688 C 23.621094 28.804688 23.460938 28.632812 23.324219 28.507812 L 23.175781 28.363281 C 23.015625 28.238281 22.878906 28.078125 22.734375 27.941406 L 21.855469 27.078125 C 21.675781 26.871094 21.457031 26.691406 21.265625 26.496094 L 20.550781 25.769531 C 20.515625 25.746094 20.492188 25.722656 20.46875 25.699219 C 20.378906 25.609375 20.289062 25.496094 20.183594 25.40625 L 20.105469 25.335938 C 20.003906 25.234375 19.921875 25.144531 19.820312 25.042969 L 19.242188 24.460938 C 18.910156 24.121094 18.820312 23.949219 18.605469 23.539062 C 18.535156 23.402344 18.480469 23.210938 18.433594 23.0625 C 18.355469 22.8125 18.332031 22.515625 18.34375 22.300781 C 18.34375 22.230469 18.34375 22.1875 18.355469 22.128906 C 18.355469 22.0625 18.378906 22.015625 18.386719 21.960938 C 18.421875 21.730469 18.511719 21.492188 18.640625 21.277344 C 18.457031 20.742188 17.832031 18.980469 15.796875 13.226562 C 15.441406 13.394531 15.089844 13.601562 14.839844 13.773438 C 14.714844 13.851562 14.601562 13.917969 14.488281 14.011719 C 14.316406 14.15625 14.125 14.285156 13.953125 14.441406 C 13.25 15.054688 12.667969 15.828125 12.363281 16.726562 C 12.339844 16.808594 12.316406 16.886719 12.292969 16.96875 C 12.28125 17.011719 12.269531 17.046875 12.257812 17.09375 C 12.203125 17.296875 12.167969 17.523438 12.144531 17.742188 C 12.121094 18.011719 12.109375 18.296875 12.132812 18.582031 C 12.167969 18.992188 12.226562 19.421875 12.363281 19.820312 Z M 12.363281 19.820312 "/>
<path style=" stroke:none;fill-rule:evenodd;fill:rgb(99.607843%,99.607843%,99.607843%);fill-opacity:1;" d="M 29.929688 30.101562 C 29.976562 30.136719 30.363281 30.273438 30.421875 30.296875 L 32.148438 30.941406 C 32.71875 31.171875 33.320312 31.375 33.886719 31.601562 L 35.617188 32.25 C 36.105469 32.421875 36.628906 32.636719 37.105469 32.808594 C 37.277344 32.863281 37.722656 33.046875 37.855469 33.082031 C 37.855469 33.046875 37.855469 33.011719 37.855469 32.96875 C 37.855469 32.921875 37.855469 32.886719 37.855469 32.84375 C 37.855469 32.570312 37.855469 32.089844 37.847656 31.839844 C 37.847656 31.671875 37.855469 31.203125 37.824219 31.078125 L 37.8125 31.066406 C 37.742188 30.851562 37.6875 30.75 37.515625 30.601562 C 37.242188 30.351562 36.914062 30.273438 36.574219 30.136719 L 35.890625 29.886719 C 35.84375 29.875 35.820312 29.863281 35.789062 29.851562 L 32.898438 28.816406 C 32.71875 28.75 32.476562 28.667969 32.296875 28.632812 C 32.171875 28.601562 32.082031 28.601562 31.957031 28.589844 C 31.75 28.566406 31.570312 28.589844 31.363281 28.65625 C 31.308594 28.679688 30.441406 29.578125 30.386719 29.648438 L 30.023438 30.011719 C 29.988281 30.042969 29.964844 30.078125 29.929688 30.101562 Z M 29.929688 30.101562 "/>
<path style=" stroke:none;fill-rule:evenodd;fill:rgb(99.607843%,99.607843%,99.607843%);fill-opacity:1;" d="M 17.160156 12.726562 C 17.320312 13.203125 17.5 13.691406 17.660156 14.191406 C 17.695312 14.304688 17.730469 14.375 17.761719 14.488281 C 17.820312 14.648438 17.898438 14.941406 17.96875 15.089844 C 18.046875 15.25 18.105469 15.511719 18.171875 15.671875 C 18.207031 15.761719 18.242188 15.875 18.261719 15.964844 C 18.296875 16.078125 18.332031 16.148438 18.367188 16.261719 L 18.785156 17.433594 C 18.820312 17.511719 18.855469 17.648438 18.878906 17.730469 L 19.023438 18.171875 C 19.046875 18.230469 19.070312 18.242188 19.082031 18.308594 C 19.105469 18.367188 19.117188 18.410156 19.140625 18.46875 C 19.160156 18.535156 19.171875 18.546875 19.195312 18.605469 C 19.320312 18.957031 19.582031 19.695312 19.730469 20.015625 C 19.789062 20.117188 19.796875 20.175781 19.902344 20.195312 C 20.195312 20.265625 20.71875 19.730469 20.902344 19.515625 C 20.992188 19.410156 21.09375 19.265625 21.152344 19.140625 L 21.3125 18.785156 C 21.324219 18.765625 21.3125 18.753906 21.324219 18.730469 C 21.355469 18.660156 21.378906 18.59375 21.414062 18.511719 C 21.425781 18.480469 21.449219 18.457031 21.425781 18.410156 C 21.390625 18.273438 21.3125 18.09375 21.277344 17.957031 C 21.21875 17.796875 21.140625 17.5 21.074219 17.355469 C 20.992188 17.195312 20.9375 16.957031 20.878906 16.761719 C 20.8125 16.558594 20.742188 16.375 20.675781 16.171875 C 20.640625 16.058594 20.605469 15.988281 20.570312 15.886719 C 20.34375 15.179688 20.09375 14.5 19.867188 13.78125 L 19.765625 13.5 C 19.707031 13.304688 19.683594 13.132812 19.515625 13 C 19.492188 12.976562 19.457031 12.953125 19.421875 12.929688 L 19.230469 12.816406 C 19.128906 12.757812 18.820312 12.667969 18.695312 12.632812 C 18.605469 12.621094 18.546875 12.613281 18.457031 12.589844 C 18.160156 12.542969 17.75 12.507812 17.445312 12.613281 L 17.433594 12.613281 L 17.285156 12.65625 C 17.25 12.667969 17.21875 12.691406 17.160156 12.726562 Z M 17.160156 12.726562 "/>
</g>
</svg>
